<?xml version="1.0" encoding="iso-8859-1"?>
<!-- Generator: Adobe Illustrator 16.0.0, SVG Export Plug-In . SVG Version: 6.00 Build 0)  -->
<!DOCTYPE svg PUBLIC "-//W3C//DTD SVG 1.1//EN" "http://www.w3.org/Graphics/SVG/1.1/DTD/svg11.dtd">
<svg version="1.1" id="Layer_1" xmlns="http://www.w3.org/2000/svg" xmlns:xlink="http://www.w3.org/1999/xlink" x="0px" y="0px"
	 width="792px" height="412px" viewBox="0 75 792 412" style="" xml:space="preserve">
<g>
	
	<path style="fill-rule:evenodd;clip-rule:evenodd;fill:#FFFFFF;" d="M106,423.037c5.474,2.877,10.741,6.285,16.468,8.51
		c9.272,3.601,19.081,4.394,28.991,3.406c17.45-1.738,26.566-14.207,23.676-32.405c-0.573-3.608-1.189-7.219-2.001-10.779
		c-2.215-9.718-4.544-19.409-6.775-28.886c-9.893-1.305-19.768-1.742-29.205-4.006c-36.566-8.771-67.005-26.846-85.848-60.609
		c-13.855-24.827-11.006-50.411,7.563-69.512c6.191-6.368,13.527-12.025,21.244-16.419c13.27-7.556,27.137-14.107,40.999-20.551
		c4.161-1.935,4.9-3.731,4.173-8.12c-2.222-13.411-4.821-26.898-5.299-40.425c-0.716-20.237,7.376-37.24,23.042-50.385
		c0.892-0.749,1.781-1.507,2.725-2.187c15.688-11.298,26.72-9.43,36.338,7.173c15.729,27.152,19.45,55.25,4.328,84.071
		c-6.02,11.472-14.984,20.334-26.022,27.029c-5.54,3.36-11.302,6.354-17.553,9.842c2.232,9.863,4.926,19.948,6.677,30.195
		c1.028,6.019,3.602,8.181,9.665,9.128c21.952,3.428,40.766,13.027,54.784,30.765c6.948,8.791,11.428,18.755,12.475,30.002
		c1.438,15.458-8.17,30.655-24.318,37.017c-8.096,3.189-16.872,4.655-25.942,7.061c2.174,9.491,4.953,19.547,6.676,29.779
		c1.452,8.62,2.87,17.545,2.165,26.159c-1.027,12.528-10.195,20.278-25.468,22.696c-26.856,4.252-50.857-2.991-71.548-20.257
		c-4.597-3.837-8.074-9.828-10.294-15.52c-3.789-9.713,0.773-18.609,10.323-22.925c14.171-6.403,36.144-0.017,44.471,13.11
		c3.991,6.292,5.347,13.152,1.085,19.77c-4.336,6.731-11.487,7.274-18.664,6.924c-2.763-0.135-5.503-0.733-8.253-1.121
		C106.449,422.057,106.225,422.547,106,423.037z M164.468,354.579c-5.544-24.135-10.851-47.433-16.369-70.68
		c-0.28-1.182-2.389-2.765-3.627-2.749c-8.143,0.105-15.815,2.056-22.354,7.233c-7.227,5.722-9.25,13.876-5.402,22.235
		c3.908,8.487,10.913,14.123,18.305,19.355c1.199,0.849,2.422,1.664,3.635,2.494c-1.854,0.786-3.208,0.784-4.414,0.36
		c-16.029-5.633-28.18-15.837-34.626-31.659c-4.712-11.564-2.108-22.256,7.026-31.027c6.659-6.396,14.709-10.217,23.68-12.096
		c3.66-0.767,7.392-1.192,11.489-1.835c-2.652-11.358-5.196-22.255-7.747-33.181c-12.467,3.648-38.856,16.855-48.766,24.672
		c-4.422,3.489-8.785,7.215-12.476,11.443c-14.647,16.78-15.455,36.709-1.598,54.187c15,18.921,35.389,29.877,58.176,36.643
		C140.586,353.296,152.067,354.864,164.468,354.579z M135.185,185.066c18.499-7.522,35.51-16.858,45.849-34.934
		c1.706-2.982,2.907-6.366,3.742-9.714c3.449-13.825-5.458-25.212-19.66-25.18c-9.815,0.022-17.1,4.875-22.487,12.742
		C130.562,145.597,129.503,164.728,135.185,185.066z M157.383,282.03c5.613,24.191,11.032,47.545,16.543,71.297
		c12.197-2.942,22.089-8.157,27.088-19.73c4.842-11.21,1.211-21.242-5.768-30.199C185.906,291.412,173.003,285.321,157.383,282.03z"
		/>
	<path style="fill-rule:evenodd;clip-rule:evenodd;fill:#FFFFFF;" d="M333.675,290.419c-1.47,1.969-3.285,3.769-4.349,5.937
		c-4.689,9.558-9.09,19.258-13.759,28.826c-1.378,2.823-3.089,5.541-5.005,8.031c-3.29,4.274-7.383,3.754-8.664-1.508
		c-1.318-5.414-2.026-11.185-1.728-16.729c0.356-6.593,2.221-13.09,3.154-19.668c0.931-6.557,1.56-13.158,2.233-19.749
		c0.248-2.42-0.399-5.976,2.997-5.687c2.122,0.181,5.37,2.801,5.729,4.762c0.754,4.133,0.143,8.572-0.274,12.85
		c-0.693,7.103-1.676,14.178-1.84,21.563c0.582-1.008,1.156-2.021,1.747-3.024c4.557-7.735,9.072-15.495,13.708-23.182
		c1.022-1.695,2.177-3.683,3.798-4.558c2.601-1.401,5.879-3.094,8.418-2.55c1.86,0.398,3.771,4.021,4.295,6.496
		c1.2,5.669,1.539,11.518,2.282,17.286c0.401,3.122,0.916,6.229,1.531,10.36c0.995-1.634,1.643-2.441,2.024-3.36
		c2.867-6.915,5.661-13.859,8.526-20.775c0.761-1.839,1.562-3.682,2.561-5.396c2.204-3.782,5.154-6.804,9.92-6.312
		c4.739,0.489,6.455,4.312,7.572,8.271c1.762,6.24,3.187,12.577,4.981,18.808c2.938,10.198,8.784,11.973,16.818,5.155
		c8.873-7.527,13.296-17.265,14.003-28.792c0.235-3.834-0.047-8.23,5.538-8.278c3.805-0.032,6.523,4.079,6.304,9.311
		c-0.156,3.726-0.701,7.436-0.396,11.235c1.873-3.799,3.528-7.726,5.667-11.368c3.889-6.624,9.486-11.563,16.301-15.06
		c6.193-3.179,11.16-1.583,12.693,5.236c1.428,6.351,1.633,13.126,1.337,19.668c-0.243,5.382-2.01,10.694-3.275,16.895
		c17.187-17.481,31.412-35.486,31.942-60.799c0.08-3.776,0.894-7.59,1.806-11.279c0.806-3.26,2.142-6.925,6.517-5.984
		c3.935,0.845,4.03,4.462,3.737,7.711c-0.777,8.61-1.873,17.195-2.506,25.815c-1.155,15.75-2.068,31.517-1.966,47.597
		c0.753-1.515,1.568-3.003,2.248-4.55c4.351-9.903,10.544-18.503,18.476-25.817c3.085-2.845,6.498-5.65,11.108-3.785
		c4.468,1.808,5.573,5.903,5.82,10.231c0.343,5.986,0.367,11.995,0.854,17.968c0.239,2.932,0.811,5.975,1.946,8.665
		c1.888,4.471,6.036,6.44,10.189,4.04c5.392-3.115,10.898-6.709,14.943-11.333c8.316-9.505,15.652-19.864,23.474-29.808
		c5.281-6.714,5.964-6.801,13.252-2.347c4.194,2.563,8.079,5.828,12.558,7.673c3.471,1.43,7.87,2.184,11.463,1.41
		c7.416-1.599,14.54-4.521,21.85-6.673c2.238-0.659,5.667-1.639,6.808-0.585c1.497,1.384,1.974,4.729,1.657,7.064
		c-1.046,7.726-2.682,15.37-4.007,23.061c-0.386,2.238-0.487,4.525-0.72,6.789c0.572,0.263,1.145,0.524,1.717,0.787
		c1.587-2.806,3.31-5.544,4.732-8.43c2.93-5.945,5.504-12.075,8.635-17.908c1.212-2.256,3.304-4.229,5.399-5.787
		c7.371-5.478,15.062-3.08,17.351,5.767c1.862,7.198,2.883,14.633,3.94,22.011c0.565,3.938,1.781,7.738,5.752,8.374
		c2.573,0.412,6.159-0.962,8.235-2.757c9.955-8.605,18.471-18.279,20.587-32.048c0.288-1.869,1.406-3.766,2.586-5.31
		c2.253-2.948,5.412-4.101,8.827-2.313c3.243,1.697,3.098,4.811,2.251,7.898c-2.938,10.721-6.172,21.372-8.726,32.184
		c-1.545,6.538,1.745,9.092,8.163,6.939c8.375-2.809,14.535-8.533,17.815-16.469c3.148-7.617,4.954-15.793,7.292-23.74
		c0.513-1.741,0.563-3.638,1.206-5.318c1.281-3.354,3.495-6.113,7.469-4.984c3.891,1.105,4.614,4.638,3.959,8.122
		c-1.014,5.386-2.531,10.676-3.677,16.04c-5,23.417-9.849,46.867-14.996,70.251c-0.877,3.982-2.582,7.903-4.566,11.485
		c-1.764,3.186-5.374,4.887-8.471,2.699c-1.616-1.142-2.527-5.041-1.959-7.227c3.556-13.668,7.693-27.185,11.439-40.806
		c0.603-2.193,0.207-4.662,0.273-7.003c-2.133,1.014-4.42,1.798-6.359,3.102c-2.335,1.568-4.272,3.719-6.559,5.372
		c-7.976,5.766-16.314,3.908-20.872-4.853c-1.811-3.479-2.866-7.353-4.434-11.493c-1.667,2.188-2.975,4.31-4.677,6.044
		c-2.777,2.829-5.458,6.005-8.804,7.976c-10.74,6.328-21.023,1.293-22.953-10.968c-0.49-3.11-0.403-6.308-0.715-9.452
		c-0.311-3.132-0.354-6.396-1.347-9.319c-0.655-1.932-2.622-4.465-4.29-4.702c-1.562-0.222-4.172,1.838-5.166,3.56
		c-5.66,9.797-10.984,19.788-16.399,29.727c-1.74,3.194-3.662,6.354-7.972,5.291c-4.282-1.056-4.734-4.775-4.668-8.379
		c0.229-12.312,0.589-24.621,0.884-36.932c0.015-0.602-0.109-1.206-0.224-2.373c-8.191,6.124-16.865,9.32-26.754,9.186
		c-1.078-0.015-2.863,2.654-3.172,4.296c-1.072,5.7-1.063,11.647-2.522,17.224c-2.715,10.376-9.113,18.115-19.22,22.166
		c-10.71,4.292-19.645-1.359-20.464-12.813c-0.317-4.441-0.052-8.925-0.052-13.344c-2.75,2.447-5.137,5.202-8.089,7.061
		c-5.409,3.407-10.854,7.182-16.827,9.163c-7.999,2.653-14.3-1.402-15.916-9.76c-1.059-5.474-0.516-11.246-0.861-16.874
		c-0.225-3.676,1.087-8.813-3.349-10.044c-4.447-1.234-6.294,3.659-7.945,6.919c-6.597,13.026-13.079,26.118-19.248,39.353
		c-2.78,5.964-5.371,8.829-8.845,7.905c-3.595-0.956-5.428-5.185-4.79-11.451c1.517-14.908,3.101-29.809,4.645-44.714
		c0.066-0.644,0.008-1.301,0.008-3.459c-1.632,1.949-2.586,2.856-3.269,3.936c-11.014,17.432-25.593,31.501-41.874,43.854
		c-2.521,1.913-6.358,3.075-9.515,2.936c-4.723-0.209-6.515-5.059-3.591-8.804c1.604-2.056,3.84-3.651,5.914-5.301
		c13.095-10.411,18.909-23.748,16.214-40.443c-0.238-1.474-1.406-2.797-2.143-4.19c-1.389,0.749-3.133,1.185-4.111,2.295
		c-14.09,15.995-22.734,34.299-23.329,55.941c-0.279,10.159-0.465,20.323-0.906,30.476c-0.281,6.47-3.04,10.284-6.774,10.085
		c-3.896-0.207-5.93-4.642-5.309-11.369c1.607-17.404,3.217-34.809,4.734-52.221c0.249-2.848,0.035-5.735,0.035-8.604
		c-0.438-0.167-0.877-0.335-1.315-0.502c-0.968,0.947-2.053,1.803-2.884,2.858c-3.295,4.188-6.326,8.598-9.796,12.633
		c-7.206,8.379-14.187,7.676-19.009-2.166c-3.578-7.304-6.376-14.99-9.57-22.484c-0.752-1.766-1.702-3.446-3.146-6.338
		c-1.489,2.682-2.532,4.226-3.25,5.908c-4.051,9.486-7.857,19.08-12.104,28.477c-1.657,3.666-3.428,8.386-8.661,7.64
		c-5.567-0.793-6.571-5.769-6.845-10.309c-0.449-7.473-0.309-14.979-0.497-22.471c-0.056-2.25-0.375-4.494-0.574-6.74
		C335.013,290.902,334.344,290.66,333.675,290.419z M578.883,315.604c0.106,0.966,0.218,1.955,0.324,2.944
		c0.372,3.457,1.203,7.385,5.032,7.613c2.593,0.154,6.097-1.658,7.893-3.723c8.157-9.372,12.078-20.252,8.898-32.72
		c-0.619-2.427-2.604-5.546-4.662-6.229c-1.602-0.532-4.977,1.719-6.386,3.61C583.711,295.516,579.924,305.033,578.883,315.604z"/>
	<path style="fill-rule:evenodd;clip-rule:evenodd;fill:#FFFFFF;" d="M266.313,312.307c-5.161,3.253-10.214,7.461-16.016,9.865
		c-9.71,4.023-17.278-0.727-17.663-11.294c-0.342-9.396,0.839-18.866,1.662-28.275c0.36-4.115,1.429-8.178,2.327-12.23
		c0.353-1.594,0.692-3.62,1.795-4.518c1.634-1.33,4.089-2.699,5.916-2.392c1.331,0.224,3.233,3.208,3.105,4.82
		c-0.444,5.598-1.718,11.126-2.572,16.697c-0.878,5.732-2.178,11.472-2.319,17.231c-0.228,9.302,3.84,11.361,11.808,6.311
		c11.949-7.573,17.497-19.207,20.109-32.581c0.509-2.606,0.708-5.271,1.165-7.89c0.283-1.624,0.302-3.681,1.301-4.703
		c1.452-1.486,3.695-3,5.569-2.961c1.066,0.022,3.085,3.208,2.932,4.8c-0.812,8.43-1.721,16.901-3.444,25.182
		c-3.689,17.737-8.092,35.325-11.785,53.063c-1.212,5.821-1.138,11.91-1.65,17.877c-0.156,1.818-0.056,3.703-0.515,5.439
		c-0.958,3.625-2.881,6.674-7.197,6.19c-4.025-0.451-5.472-3.687-5.541-7.202c-0.07-3.618,0.154-7.345,0.959-10.861
		c3.083-13.452,6.458-26.839,9.701-40.255C266.212,313.587,266.283,312.51,266.313,312.307z"/>
	<path style="fill-rule:evenodd;clip-rule:evenodd;fill:#FFFFFF;" d="M468.407,403.458c-3.252,4.101-6.466,8.233-9.772,12.289
		c-1.78,2.184-3.349,4.982-5.688,6.152c-2.724,1.36-6.532,2.298-9.212,1.417c-1.979-0.649-3.511-4.355-4.158-6.969
		c-0.94-3.799-0.906-7.84-1.391-12.832c-2.088,1.45-3.738,2.188-4.825,3.422c-5.043,5.729-9.749,11.766-14.985,17.305
		c-1.522,1.61-4.427,2.669-6.65,2.593c-1.426-0.048-4.025-2.714-3.939-4.069c0.567-8.934,1.545-17.857,2.936-26.698
		c0.151-0.961,3.818-1.995,5.801-1.897c3.073,0.15,4.83,2.48,4.262,5.566c-0.744,4.044-2.007,7.993-3.328,13.064
		c3.261-3.771,5.708-6.934,8.503-9.753c3.777-3.812,7.868-7.266,13.728-7.241c5.524,0.022,8.218,2.476,8.737,8.043
		c0.305,3.261,0.529,6.528,0.901,11.192c3.345-4.348,5.77-7.659,8.363-10.833c3.522-4.312,7.286-8.29,13.486-8.407
		c5.32-0.1,8.044,1.791,9.531,6.886c0.326,1.116,0.589,2.262,0.76,3.411c0.906,6.074,1.311,12.392,8.422,15.157
		c-2.557,4.149-6.075,4.7-9.797,4.197c-4.4-0.595-6.522-3.769-7.382-7.775c-0.962-4.481-1.646-9.023-2.45-13.539
		C469.641,403.912,469.024,403.686,468.407,403.458z"/>
	<path style="fill-rule:evenodd;clip-rule:evenodd;fill:#FFFFFF;" d="M704.578,418.305c-5.447,2.196-10.388,4.596-15.577,6.183
		c-7.354,2.249-13.392,0.77-15.508-3.102c-1.907-3.49,0.293-9.527,5.651-14.33c7.891-7.07,17.096-11.483,27.734-12.434
		c2.261-0.202,4.689,0.115,6.88,0.749c5.399,1.562,5.865,3.895,4.128,9.204c-2.257,6.896-3.804,14.053-5.264,21.178
		c-2.749,13.417-14.142,21.495-27.648,18.551c-5.887-1.283-11.519-3.936-17.071-6.404c-1.355-0.603-1.942-2.93-2.883-4.464
		c1.792-0.2,3.728-0.932,5.348-0.495c3.836,1.036,7.455,2.858,11.28,3.95c11.91,3.397,17.351,0.418,21.12-11.392
		C703.512,423.174,703.97,420.758,704.578,418.305z M683.286,418.297c8.741,1.404,21.688-6.065,24.586-13.601
		c1.228-3.192-0.663-4.412-3.063-3.584c-4.445,1.536-8.874,3.439-12.849,5.927C687.98,409.53,684.415,412.813,683.286,418.297z"/>
	<path style="fill-rule:evenodd;clip-rule:evenodd;fill:#FFFFFF;" d="M652.493,418.679c-6.799,2.567-13.245,5.417-19.953,7.37
		c-3.72,1.083-8.613,0.329-9.932-3.636c-1.093-3.285-0.645-8.09,1.074-11.11c4.844-8.512,12.606-13.902,21.933-17.046
		c6.731-2.269,12.146,1.042,17.625,3.962c0.611,0.326,0.812,2.079,0.648,3.079c-0.426,2.613-1.213,5.165-1.76,7.762
		c-1.222,5.8-1.579,11.345,5.168,14.465c-2.237,4.073-5.807,4.09-9.205,3.412C653.112,425.944,652.95,421.513,652.493,418.679z
		 M632.384,419.566c7.665-0.361,18.351-8.102,20.535-14.479c1.171-3.421-0.837-6.046-4.219-4.831
		c-7.453,2.678-13,7.793-16.244,15.102C631.936,416.531,632.384,418.135,632.384,419.566z"/>
	<path style="fill-rule:evenodd;clip-rule:evenodd;fill:#FFFFFF;" d="M540.201,423.505c-2.362,4.078-5.925,4.146-9.33,3.423
		c-4.996-1.061-5.069-5.508-5.635-9.874c-2.355,1.611-4.329,3.607-6.712,4.46c-5.219,1.868-10.585,4.097-16.002,4.444
		c-6.938,0.445-10.01-4.815-7.811-11.478c3.569-10.817,20.194-21.765,31.52-20.757c7.585,0.675,11.033,5.297,9.327,12.493
		c-0.154,0.647-0.309,1.296-0.426,1.95C534.059,414.147,532.777,420.194,540.201,423.505z M526.714,402.084
		c-1.951-0.645-4.177-2.235-5.542-1.687c-7.135,2.868-12.749,7.695-15.914,14.892c-0.458,1.043-0.474,2.895,0.163,3.624
		c0.586,0.671,2.474,0.751,3.534,0.376c6.772-2.396,12.229-6.589,16.112-12.68C525.673,405.659,525.872,404.451,526.714,402.084z"/>
	<path style="fill-rule:evenodd;clip-rule:evenodd;fill:#FFFFFF;" d="M735.057,418.434c2.059,0.841,4.27,2.636,6.148,2.338
		c4.99-0.791,9.858-2.413,14.726-3.871c1.23-0.369,2.194-1.686,3.423-1.986c1.6-0.393,3.341-0.206,5.021-0.269
		c-0.609,1.704-0.719,3.989-1.911,5.016c-6.59,5.669-14.47,8.106-23.097,7.773c-5.791-0.224-11.616-1.149-14.115-7.426
		c-2.511-6.304-0.11-11.793,4.146-16.47c6.204-6.816,13.705-11.063,23.277-10.545c4.037,0.218,7.814,1.361,9.197,5.565
		c1.363,4.143-1.19,7.529-4.381,9.193c-6.112,3.188-12.686,5.498-19.083,8.135c-0.874,0.36-1.838,0.506-2.76,0.751
		C735.451,417.237,735.254,417.836,735.057,418.434z M736.594,409.459c0.26,0.507,0.52,1.015,0.779,1.521
		c4.497-2.161,9.087-4.159,13.425-6.603c1.027-0.578,1.212-2.653,1.784-4.04c-1.496-0.341-3.194-1.316-4.451-0.913
		C742.895,401.105,738.914,404.426,736.594,409.459z"/>
	<path style="fill-rule:evenodd;clip-rule:evenodd;fill:#FFFFFF;" d="M568.807,417.845c-5.753-2.226-10.345-4.004-14.938-5.777
		c-3.364-1.299-7.353-3.052-6.656-6.951c0.519-2.905,3.286-6.625,5.963-7.688c6.356-2.524,13.195-4.044,19.973-5.152
		c1.74-0.284,5.702,2.546,5.646,3.81c-0.146,3.205-3.229,3.001-6.107,3.063c-3.886,0.084-7.8,1.015-11.591,2.006
		c-1.152,0.301-2.657,1.983-2.682,3.064c-0.022,0.988,1.554,2.429,2.742,2.953c3.944,1.74,8.237,2.783,11.984,4.843
		c2.207,1.212,5.027,3.846,5.023,5.835c-0.005,2.028-2.826,5.348-4.944,5.845c-8.17,1.919-16.523,3.192-24.876,4.073
		c-1.696,0.179-3.682-2.393-5.533-3.696c1.994-1.063,3.899-2.773,6.001-3.066c5.672-0.789,11.431-0.95,17.148-1.438
		C566.525,419.518,567.045,418.935,568.807,417.845z"/>
	<path style="fill-rule:evenodd;clip-rule:evenodd;fill:#FFFFFF;" d="M605.414,417.545c-4.563-1.802-9.339-3.213-13.613-5.545
		c-2.796-1.524-6.82-4.431-6.767-6.632c0.068-2.812,3.135-6.876,5.897-8.024c6.154-2.559,12.868-3.927,19.467-5.187
		c2.659-0.508,6.342,0.308,5.836,4.116c-0.153,1.157-3.977,2.101-6.238,2.642c-3.497,0.837-7.179,0.963-10.615,1.962
		c-1.465,0.427-2.509,2.298-3.744,3.513c1.2,1.038,2.242,2.433,3.63,3.045c3.637,1.604,7.655,2.458,11.07,4.403
		c2.353,1.34,5.473,4.009,5.462,6.07c-0.01,2.066-3.169,5.376-5.487,5.944c-7.822,1.919-15.854,3.158-23.877,3.956
		c-1.866,0.186-5.757-2.482-5.699-3.696c0.179-3.797,3.865-3.594,6.567-3.108C593.578,422.131,599.459,421.241,605.414,417.545z"/>
</g>
</svg>
