<?xml version="1.0" encoding="iso-8859-1"?>
<!-- Generator: Adobe Illustrator 16.0.0, SVG Export Plug-In . SVG Version: 6.00 Build 0)  -->
<!DOCTYPE svg PUBLIC "-//W3C//DTD SVG 1.1//EN" "http://www.w3.org/Graphics/SVG/1.1/DTD/svg11.dtd">
<svg version="1.1" id="Layer_1" xmlns="http://www.w3.org/2000/svg" xmlns:xlink="http://www.w3.org/1999/xlink" x="0px" y="0px"
	 width="792px" height="412px" viewBox="0 75 792 412" style="" xml:space="preserve">
<g>

	<path style="fill-rule:evenodd;clip-rule:evenodd;fill:#000000;" d="M106,423.037c5.474,2.877,10.741,6.285,16.468,8.51
		c9.272,3.601,19.081,4.394,28.991,3.406c17.45-1.738,26.566-14.207,23.676-32.405c-0.573-3.608-1.189-7.219-2.001-10.779
		c-2.215-9.718-4.544-19.409-6.775-28.886c-9.893-1.305-19.768-1.742-29.205-4.006c-36.566-8.771-67.005-26.846-85.848-60.609
		c-13.855-24.827-11.006-50.411,7.563-69.512c6.191-6.368,13.527-12.025,21.244-16.419c13.27-7.556,27.137-14.107,40.999-20.551
		c4.161-1.935,4.9-3.731,4.173-8.12c-2.222-13.411-4.821-26.898-5.299-40.425c-0.716-20.237,7.376-37.24,23.042-50.385
		c0.892-0.749,1.781-1.507,2.725-2.187c15.688-11.298,26.72-9.43,36.338,7.173c15.729,27.152,19.45,55.25,4.328,84.071
		c-6.02,11.472-14.984,20.334-26.022,27.029c-5.54,3.36-11.302,6.354-17.553,9.842c2.232,9.863,4.926,19.948,6.677,30.195
		c1.028,6.019,3.602,8.181,9.665,9.128c21.952,3.428,40.766,13.027,54.784,30.765c6.948,8.791,11.428,18.755,12.475,30.002
		c1.438,15.458-8.17,30.655-24.318,37.017c-8.096,3.189-16.872,4.655-25.942,7.061c2.174,9.491,4.953,19.547,6.676,29.779
		c1.452,8.62,2.87,17.545,2.165,26.159c-1.027,12.528-10.195,20.278-25.468,22.696c-26.856,4.252-50.857-2.991-71.548-20.257
		c-4.597-3.837-8.074-9.828-10.294-15.52c-3.789-9.713,0.773-18.609,10.323-22.925c14.171-6.403,36.144-0.017,44.471,13.11
		c3.991,6.292,5.347,13.152,1.085,19.77c-4.336,6.731-11.487,7.274-18.664,6.924c-2.763-0.135-5.503-0.733-8.253-1.121
		C106.449,422.057,106.225,422.547,106,423.037z M164.468,354.579c-5.544-24.135-10.851-47.433-16.369-70.68
		c-0.28-1.182-2.389-2.765-3.627-2.749c-8.143,0.105-15.815,2.056-22.354,7.233c-7.227,5.722-9.25,13.876-5.402,22.235
		c3.908,8.487,10.913,14.123,18.305,19.355c1.199,0.849,2.422,1.664,3.635,2.494c-1.854,0.786-3.208,0.784-4.414,0.36
		c-16.029-5.633-28.18-15.837-34.626-31.659c-4.712-11.564-2.108-22.256,7.026-31.027c6.659-6.396,14.709-10.217,23.68-12.096
		c3.66-0.767,7.392-1.192,11.489-1.835c-2.652-11.358-5.196-22.255-7.747-33.181c-12.467,3.648-38.856,16.855-48.766,24.672
		c-4.422,3.489-8.785,7.215-12.476,11.443c-14.647,16.78-15.455,36.709-1.598,54.187c15,18.921,35.389,29.877,58.176,36.643
		C140.586,353.296,152.067,354.864,164.468,354.579z M135.185,185.066c18.499-7.522,35.51-16.858,45.849-34.934
		c1.706-2.982,2.907-6.366,3.742-9.714c3.449-13.825-5.458-25.212-19.66-25.18c-9.815,0.022-17.1,4.875-22.487,12.742
		C130.562,145.597,129.503,164.728,135.185,185.066z M157.383,282.03c5.613,24.191,11.032,47.545,16.543,71.297
		c12.197-2.942,22.089-8.157,27.088-19.73c4.842-11.21,1.211-21.242-5.768-30.199C185.906,291.412,173.003,285.321,157.383,282.03z"
		/>
</g>
</svg>
